<svg width="100" height="36" viewBox="0 0 100 36" fill="none" xmlns="http://www.w3.org/2000/svg">
<path d="M42.5746 14.8562C42.5746 14.2309 43.0502 13.8835 43.8254 13.8835C44.6005 13.8835 45.0233 14.2309 45.0233 14.8562V24.0617C45.0233 26.806 43.5259 28.265 40.6896 28.265C39.4212 28.265 38.4699 27.9697 37.8357 27.5008C37.0958 26.9623 36.4557 26.476 36.2443 25.9202C36.1914 25.7813 36.1738 25.6423 36.1738 25.5207C36.1738 25.0344 36.3089 24.907 36.7434 24.6291C36.9548 24.5596 37.0899 24.5249 37.3013 24.5249C37.6889 24.5249 37.9355 24.6002 38.235 25.0633C38.6637 25.7176 39.5093 26.1807 40.6543 26.1807C41.9756 26.1807 42.5746 25.3991 42.5746 23.9402V14.8562Z" fill="#1F1F1F"/>
<path d="M57.742 22.9327C57.742 26.198 55.9451 28.2997 52.9503 28.2997C49.9554 28.2997 48.0176 26.198 48.0176 22.9327C48.0176 19.6673 49.8673 17.6873 52.915 17.6873C55.9627 17.6873 57.742 19.7368 57.742 22.9327ZM50.3078 22.9848C50.3078 25.0517 51.2591 26.4412 52.8622 26.4412C54.5886 26.4412 55.4694 25.0864 55.4694 22.9327C55.4694 20.9005 54.571 19.5457 52.9503 19.5457C51.2414 19.5457 50.3078 20.8484 50.3078 22.9848Z" fill="#1F1F1F"/>
<path d="M62.6925 18.3647C62.6925 18.6947 62.6572 19.0595 62.622 19.3895C63.2914 18.33 64.2427 17.6873 65.793 17.6873C68.5588 17.6873 70.1267 19.6848 70.1267 22.8807C70.1267 26.0765 68.4708 28.2824 65.7226 28.2824C64.1723 28.2824 63.2386 27.6397 62.6396 26.5802C62.6572 26.7366 62.6925 26.945 62.6925 27.0839V27.3097C62.6925 27.7092 62.3754 28.1087 61.5474 28.1087C60.8075 28.1087 60.4199 27.7787 60.4199 27.1881V14.8041C60.4199 14.2309 60.8075 13.8835 61.5474 13.8835C62.2873 13.8835 62.6925 14.2309 62.6925 14.8041V18.3647ZM62.6396 22.9328C62.6396 24.9649 63.6262 26.3718 65.2998 26.3718C66.9733 26.3718 67.8366 24.9823 67.8366 22.9154C67.8366 20.8485 66.9557 19.5806 65.335 19.5806C63.5733 19.5806 62.6396 20.9701 62.6396 22.9328Z" fill="#1F1F1F"/>
<path d="M75.0597 30.8355C75.0597 31.3913 74.6369 31.7387 73.9322 31.7387C73.1747 31.7387 72.7871 31.3913 72.7871 30.8355V18.7468C72.7871 18.1736 73.1747 17.8436 73.9322 17.8436C74.584 17.8436 75.0597 18.1215 75.0597 18.6425V18.8683C75.0597 19.0247 75.042 19.2852 75.0068 19.4763C75.6234 18.4168 76.5747 17.6873 78.1602 17.6873C80.926 17.6873 82.4763 19.6673 82.4763 22.8806C82.4763 26.0938 80.8379 28.2823 78.0721 28.2823C76.5218 28.2823 75.6058 27.6223 74.9892 26.5801C75.042 26.8581 75.0597 27.1533 75.0597 27.4312V30.8355ZM75.0068 22.9327C75.0068 24.9648 75.9934 26.3717 77.6669 26.3717C79.3405 26.3717 80.1861 24.9822 80.1861 22.9153C80.1861 20.8484 79.3053 19.5805 77.6669 19.5805C75.9229 19.5805 75.0068 20.97 75.0068 22.9327Z" fill="#1F1F1F"/>
<path d="M85.1543 14.8041C85.1543 14.2136 85.5419 13.8835 86.2994 13.8835C87.004 13.8835 87.4445 14.2136 87.4445 14.8041V27.1881C87.4445 27.7787 87.004 28.1087 86.2994 28.1087C85.5419 28.1087 85.1543 27.7787 85.1543 27.1881V14.8041Z" fill="#1F1F1F"/>
<path d="M92.288 23.5406C92.3761 25.4165 93.3978 26.5107 94.9657 26.5107C95.917 26.5107 96.516 26.2444 97.0621 25.457C97.3381 25.0922 97.6552 24.907 98.0075 24.907C98.1661 24.907 98.26 24.9359 98.4538 25.0054C98.859 25.127 99.1937 25.4049 99.1937 25.8217C99.1937 25.9433 99.1585 26.0823 99.088 26.2386C98.5243 27.3849 97.4497 28.2823 94.9481 28.2823C91.8828 28.2823 90.1035 26.1807 90.1035 22.9848C90.1035 19.7889 91.7947 17.6699 94.8424 17.6699C97.5378 17.6699 99.2994 19.65 99.4051 22.4464V22.4985C99.4051 23.1932 99.0528 23.5406 98.4891 23.5406H92.288ZM96.974 21.8385C97.115 21.8385 97.1854 21.7864 97.1854 21.6821C97.1854 21.6474 97.1854 21.63 97.1678 21.5953C96.9916 20.5011 96.3222 19.4068 94.8776 19.4068C93.3626 19.4068 92.5875 20.3621 92.3408 21.8385H96.974Z" fill="#1F1F1F"/>
<path d="M14.9464 36C11.5875 31.982 10.049 27.4429 9.50288 24.2875C8.60443 19.1232 9.32084 10.5429 10.2898 7.74072C11.5875 12.6388 11.3585 14.862 12.9381 17.4036C11.7931 14.393 13.819 12.494 15.4338 12.1756C17.0487 11.8572 19.2684 12.824 19.5092 14.9778C19.7734 17.3168 18.0881 18.6137 16.9254 19.0595C20.2843 18.9321 27.2723 16.8247 29.0163 15.9968C26.3679 17.7163 19.2156 22.0585 17.5185 24.5307C15.1578 27.9697 14.7292 31.4146 16.9254 33.3252C19.1216 35.2357 22.3631 34.4599 24.7472 32.7288C22.551 34.6278 19.3506 36 14.9523 36H14.9464Z" fill="white"/>
<path d="M10.2892 7.68286C4.52856 9.69766 0.40625 15.111 0.40625 21.4796C0.40625 29.5619 6.56035 36 15.6799 36C12.3151 32.1557 10.3832 27.2634 9.82531 24.0386C8.90925 18.7527 9.29681 10.5545 10.2892 7.68286Z" fill="#A8D320"/>
<path d="M10.2891 7.68293C11.0172 10.8788 11.4811 15.9042 12.9374 17.4037C11.8511 14.1558 14.1589 12.3552 15.7972 12.2046C17.8055 12.0252 19.6435 13.3568 19.5143 15.5684C19.3793 17.7859 17.7116 18.6948 16.5195 19.1464C20.9061 19.2796 27.2011 16.8421 29.0156 15.9911C26.8135 10.6241 21.4815 6.83765 15.2511 6.83765C13.5129 6.83765 11.8393 7.13292 10.2891 7.67714" fill="#06ACEC"/>
<path d="M29.0163 16.0027C26.2916 17.7685 19.5855 21.4218 17.3893 24.6177C14.9758 28.1378 14.5765 31.1658 16.99 33.4642C18.9807 35.3575 22.457 34.4774 24.5769 32.8679C24.6004 32.8448 24.6298 32.8274 24.6532 32.81C24.712 32.7637 24.7707 32.7116 24.8294 32.6653C28.0474 29.9789 30.0968 25.9725 30.0968 21.4855C30.0968 19.5459 29.7092 17.6991 29.0163 16.0085V16.0027Z" fill="#EB0D63"/>
<path d="M10.437 1.58636L12.1928 1.86427L10.895 3.06851L11.171 4.79961L9.60901 3.96012L8.0235 4.74751L8.35235 3.02798L7.10156 1.78321L8.86323 1.55741L9.6736 0L10.437 1.58636Z" fill="#FF8602"/>
<path d="M5.30977 6.47859L6.14949 6.17753L5.87937 7.01702L6.42549 7.71757L5.52704 7.72336L5.02203 8.45286L4.74603 7.61336L3.88281 7.3644L4.6051 6.84333L4.58161 5.95752L5.30977 6.47859Z" fill="#0C77BD"/>
<path d="M14.5929 4.06442L15.2799 4.34232L14.6398 4.71286L14.587 5.44815L14.0291 4.96182L13.3068 5.1355L13.6063 4.46391L13.2129 3.83863L13.9528 3.91389L14.4343 3.35229L14.5929 4.06442Z" fill="#6E20A3"/>
</svg>
